<svg xmlns="http://www.w3.org/2000/svg" xmlns:xlink="http://www.w3.org/1999/xlink" width="500" zoomAndPan="magnify" viewBox="0 0 375 374.999991" height="500" preserveAspectRatio="xMidYMid meet" version="1.2"><defs><clipPath id="c74564a70b"><path d="M 114 95 L 261 95 L 261 200 L 114 200 Z M 114 95 "/></clipPath><clipPath id="91b7e2f583"><path d="M 254.683594 172.210938 L 219.78125 197.085938 C 217.292969 198.859375 214.421875 199.714844 211.574219 199.714844 C 207.15625 199.714844 202.804688 197.65625 200.039062 193.789062 C 195.5 187.433594 196.976562 178.605469 203.339844 174.070312 L 209.605469 169.601562 L 211.101562 168.539062 C 213.105469 167.109375 214.183594 164.851562 214.183594 162.554688 C 214.183594 161.1875 213.804688 159.808594 213.011719 158.582031 C 210.738281 155.0625 205.980469 154.15625 202.566406 156.585938 L 151.777344 192.785156 C 149.285156 194.5625 146.414062 195.417969 143.570312 195.417969 C 139.152344 195.417969 134.796875 193.359375 132.035156 189.492188 C 127.492188 183.136719 128.972656 174.308594 135.335938 169.773438 L 143.777344 163.757812 L 146.171875 162.046875 C 149.367188 159.769531 150.207031 155.386719 148.082031 152.09375 C 145.808594 148.574219 141.050781 147.664062 137.636719 150.097656 L 136.929688 150.601562 C 130.566406 155.136719 121.726562 153.660156 117.1875 147.308594 C 112.644531 140.953125 114.121094 132.125 120.484375 127.589844 L 162.46875 97.664062 C 168.832031 93.128906 177.667969 94.605469 182.210938 100.960938 C 186.75 107.3125 185.273438 116.144531 178.910156 120.679688 L 162.023438 132.714844 C 158.589844 135.164062 157.921875 139.988281 160.558594 143.277344 C 162.996094 146.316406 167.386719 146.929688 170.5625 144.664062 L 171.765625 143.804688 L 226.757812 104.609375 C 229.25 102.832031 232.125 101.976562 234.96875 101.976562 C 239.386719 101.976562 243.742188 104.039062 246.503906 107.90625 C 251.042969 114.257812 249.566406 123.085938 243.203125 127.625 L 227.488281 138.824219 L 226.953125 139.203125 C 223.519531 141.652344 222.847656 146.480469 225.488281 149.769531 C 227.925781 152.808594 232.316406 153.417969 235.492188 151.15625 L 236.035156 150.769531 L 238.242188 149.195312 C 244.605469 144.660156 253.445312 146.136719 257.984375 152.492188 C 262.523438 158.84375 261.046875 167.671875 254.683594 172.210938 Z M 254.683594 172.210938 "/></clipPath><linearGradient x1="507.583218" gradientTransform="matrix(0.279004,0,0,0.278655,114.550554,74.601078)" y1="41.958847" x2="28.388534" gradientUnits="userSpaceOnUse" y2="486.924946" id="8751897186"><stop style="stop-color:#66d1e7;stop-opacity:1;" offset="0"/><stop style="stop-color:#66d1e7;stop-opacity:1;" offset="0.125"/><stop style="stop-color:#66d0e7;stop-opacity:1;" offset="0.128906"/><stop style="stop-color:#66d0e7;stop-opacity:1;" offset="0.132812"/><stop style="stop-color:#66cfe7;stop-opacity:1;" offset="0.136719"/><stop style="stop-color:#65cee7;stop-opacity:1;" offset="0.140625"/><stop style="stop-color:#65cde6;stop-opacity:1;" offset="0.144531"/><stop style="stop-color:#65cce6;stop-opacity:1;" offset="0.148438"/><stop style="stop-color:#65cbe6;stop-opacity:1;" offset="0.152344"/><stop style="stop-color:#65cae6;stop-opacity:1;" offset="0.15625"/><stop style="stop-color:#64c9e6;stop-opacity:1;" offset="0.160156"/><stop style="stop-color:#64c8e6;stop-opacity:1;" offset="0.164063"/><stop style="stop-color:#64c8e6;stop-opacity:1;" offset="0.167969"/><stop style="stop-color:#64c7e5;stop-opacity:1;" offset="0.171875"/><stop style="stop-color:#64c6e5;stop-opacity:1;" offset="0.175781"/><stop style="stop-color:#63c5e5;stop-opacity:1;" offset="0.179688"/><stop style="stop-color:#63c4e5;stop-opacity:1;" offset="0.183594"/><stop style="stop-color:#63c3e5;stop-opacity:1;" offset="0.1875"/><stop style="stop-color:#63c2e5;stop-opacity:1;" offset="0.191406"/><stop style="stop-color:#63c1e5;stop-opacity:1;" offset="0.195313"/><stop style="stop-color:#62c0e4;stop-opacity:1;" offset="0.199219"/><stop style="stop-color:#62bfe4;stop-opacity:1;" offset="0.203125"/><stop style="stop-color:#62bee4;stop-opacity:1;" offset="0.207031"/><stop style="stop-color:#62bde4;stop-opacity:1;" offset="0.210938"/><stop style="stop-color:#62bde4;stop-opacity:1;" offset="0.214844"/><stop style="stop-color:#62bce4;stop-opacity:1;" offset="0.21875"/><stop style="stop-color:#61bbe4;stop-opacity:1;" offset="0.222656"/><stop style="stop-color:#61bae3;stop-opacity:1;" offset="0.226563"/><stop style="stop-color:#61b9e3;stop-opacity:1;" offset="0.230469"/><stop style="stop-color:#61b8e3;stop-opacity:1;" offset="0.234375"/><stop style="stop-color:#61b7e3;stop-opacity:1;" offset="0.238281"/><stop style="stop-color:#60b6e3;stop-opacity:1;" offset="0.242188"/><stop style="stop-color:#60b5e3;stop-opacity:1;" offset="0.246094"/><stop style="stop-color:#60b4e3;stop-opacity:1;" offset="0.25"/><stop style="stop-color:#60b3e2;stop-opacity:1;" offset="0.253906"/><stop style="stop-color:#60b3e2;stop-opacity:1;" offset="0.257812"/><stop style="stop-color:#5fb2e2;stop-opacity:1;" offset="0.261719"/><stop style="stop-color:#5fb1e2;stop-opacity:1;" offset="0.265625"/><stop style="stop-color:#5fb0e2;stop-opacity:1;" offset="0.269531"/><stop style="stop-color:#5fafe2;stop-opacity:1;" offset="0.273438"/><stop style="stop-color:#5faee2;stop-opacity:1;" offset="0.277344"/><stop style="stop-color:#5fade1;stop-opacity:1;" offset="0.28125"/><stop style="stop-color:#5eace1;stop-opacity:1;" offset="0.285156"/><stop style="stop-color:#5eabe1;stop-opacity:1;" offset="0.289063"/><stop style="stop-color:#5eaae1;stop-opacity:1;" offset="0.292969"/><stop style="stop-color:#5ea9e1;stop-opacity:1;" offset="0.296875"/><stop style="stop-color:#5ea8e1;stop-opacity:1;" offset="0.300781"/><stop style="stop-color:#5da8e1;stop-opacity:1;" offset="0.304688"/><stop style="stop-color:#5da7e0;stop-opacity:1;" offset="0.308594"/><stop style="stop-color:#5da6e0;stop-opacity:1;" offset="0.3125"/><stop style="stop-color:#5da5e0;stop-opacity:1;" offset="0.316406"/><stop style="stop-color:#5da4e0;stop-opacity:1;" offset="0.320312"/><stop style="stop-color:#5ca3e0;stop-opacity:1;" offset="0.324219"/><stop style="stop-color:#5ca2e0;stop-opacity:1;" offset="0.328125"/><stop style="stop-color:#5ca1e0;stop-opacity:1;" offset="0.332031"/><stop style="stop-color:#5ca0df;stop-opacity:1;" offset="0.335937"/><stop style="stop-color:#5c9fdf;stop-opacity:1;" offset="0.339844"/><stop style="stop-color:#5b9edf;stop-opacity:1;" offset="0.34375"/><stop style="stop-color:#5b9edf;stop-opacity:1;" offset="0.347656"/><stop style="stop-color:#5b9ddf;stop-opacity:1;" offset="0.351563"/><stop style="stop-color:#5b9cdf;stop-opacity:1;" offset="0.355469"/><stop style="stop-color:#5b9bdf;stop-opacity:1;" offset="0.359375"/><stop style="stop-color:#5b9ade;stop-opacity:1;" offset="0.363281"/><stop style="stop-color:#5a99de;stop-opacity:1;" offset="0.367188"/><stop style="stop-color:#5a98de;stop-opacity:1;" offset="0.371094"/><stop style="stop-color:#5a97de;stop-opacity:1;" offset="0.375"/><stop style="stop-color:#5a96de;stop-opacity:1;" offset="0.378906"/><stop style="stop-color:#5a95de;stop-opacity:1;" offset="0.382812"/><stop style="stop-color:#5994de;stop-opacity:1;" offset="0.386719"/><stop style="stop-color:#5993dd;stop-opacity:1;" offset="0.390625"/><stop style="stop-color:#5993dd;stop-opacity:1;" offset="0.394531"/><stop style="stop-color:#5992dd;stop-opacity:1;" offset="0.398437"/><stop style="stop-color:#5991dd;stop-opacity:1;" offset="0.402344"/><stop style="stop-color:#5890dd;stop-opacity:1;" offset="0.40625"/><stop style="stop-color:#588fdd;stop-opacity:1;" offset="0.410156"/><stop style="stop-color:#588edd;stop-opacity:1;" offset="0.414063"/><stop style="stop-color:#588ddc;stop-opacity:1;" offset="0.417969"/><stop style="stop-color:#588cdc;stop-opacity:1;" offset="0.421875"/><stop style="stop-color:#578bdc;stop-opacity:1;" offset="0.425781"/><stop style="stop-color:#578adc;stop-opacity:1;" offset="0.429688"/><stop style="stop-color:#5789dc;stop-opacity:1;" offset="0.433594"/><stop style="stop-color:#5788dc;stop-opacity:1;" offset="0.4375"/><stop style="stop-color:#5788dc;stop-opacity:1;" offset="0.441406"/><stop style="stop-color:#5787db;stop-opacity:1;" offset="0.445312"/><stop style="stop-color:#5686db;stop-opacity:1;" offset="0.449219"/><stop style="stop-color:#5685db;stop-opacity:1;" offset="0.453125"/><stop style="stop-color:#5684db;stop-opacity:1;" offset="0.457031"/><stop style="stop-color:#5683db;stop-opacity:1;" offset="0.460937"/><stop style="stop-color:#5682db;stop-opacity:1;" offset="0.464844"/><stop style="stop-color:#5581db;stop-opacity:1;" offset="0.46875"/><stop style="stop-color:#5580db;stop-opacity:1;" offset="0.472656"/><stop style="stop-color:#557fda;stop-opacity:1;" offset="0.476563"/><stop style="stop-color:#557eda;stop-opacity:1;" offset="0.480469"/><stop style="stop-color:#557eda;stop-opacity:1;" offset="0.484375"/><stop style="stop-color:#547dda;stop-opacity:1;" offset="0.488281"/><stop style="stop-color:#547cda;stop-opacity:1;" offset="0.492188"/><stop style="stop-color:#547bda;stop-opacity:1;" offset="0.496094"/><stop style="stop-color:#547ada;stop-opacity:1;" offset="0.5"/><stop style="stop-color:#5479d9;stop-opacity:1;" offset="0.503906"/><stop style="stop-color:#5378d9;stop-opacity:1;" offset="0.507812"/><stop style="stop-color:#5377d9;stop-opacity:1;" offset="0.511719"/><stop style="stop-color:#5376d9;stop-opacity:1;" offset="0.515625"/><stop style="stop-color:#5375d9;stop-opacity:1;" offset="0.519531"/><stop style="stop-color:#5374d9;stop-opacity:1;" offset="0.523438"/><stop style="stop-color:#5373d9;stop-opacity:1;" offset="0.527344"/><stop style="stop-color:#5273d8;stop-opacity:1;" offset="0.53125"/><stop style="stop-color:#5272d8;stop-opacity:1;" offset="0.535156"/><stop style="stop-color:#5271d8;stop-opacity:1;" offset="0.539062"/><stop style="stop-color:#5270d8;stop-opacity:1;" offset="0.542969"/><stop style="stop-color:#526fd8;stop-opacity:1;" offset="0.546875"/><stop style="stop-color:#516ed8;stop-opacity:1;" offset="0.550781"/><stop style="stop-color:#516dd8;stop-opacity:1;" offset="0.554688"/><stop style="stop-color:#516cd7;stop-opacity:1;" offset="0.558594"/><stop style="stop-color:#516bd7;stop-opacity:1;" offset="0.5625"/><stop style="stop-color:#516ad7;stop-opacity:1;" offset="0.566406"/><stop style="stop-color:#5069d7;stop-opacity:1;" offset="0.570312"/><stop style="stop-color:#5069d7;stop-opacity:1;" offset="0.574219"/><stop style="stop-color:#5068d7;stop-opacity:1;" offset="0.578125"/><stop style="stop-color:#5067d7;stop-opacity:1;" offset="0.582031"/><stop style="stop-color:#5066d6;stop-opacity:1;" offset="0.585938"/><stop style="stop-color:#4f65d6;stop-opacity:1;" offset="0.589844"/><stop style="stop-color:#4f64d6;stop-opacity:1;" offset="0.59375"/><stop style="stop-color:#4f63d6;stop-opacity:1;" offset="0.597656"/><stop style="stop-color:#4f62d6;stop-opacity:1;" offset="0.601562"/><stop style="stop-color:#4f61d6;stop-opacity:1;" offset="0.605469"/><stop style="stop-color:#4f60d6;stop-opacity:1;" offset="0.609375"/><stop style="stop-color:#4e5fd5;stop-opacity:1;" offset="0.613281"/><stop style="stop-color:#4e5ed5;stop-opacity:1;" offset="0.617188"/><stop style="stop-color:#4e5ed5;stop-opacity:1;" offset="0.621094"/><stop style="stop-color:#4e5dd5;stop-opacity:1;" offset="0.625"/><stop style="stop-color:#4e5cd5;stop-opacity:1;" offset="0.628906"/><stop style="stop-color:#4d5bd5;stop-opacity:1;" offset="0.632812"/><stop style="stop-color:#4d5ad5;stop-opacity:1;" offset="0.636719"/><stop style="stop-color:#4d59d4;stop-opacity:1;" offset="0.640625"/><stop style="stop-color:#4d58d4;stop-opacity:1;" offset="0.644531"/><stop style="stop-color:#4d57d4;stop-opacity:1;" offset="0.648438"/><stop style="stop-color:#4c56d4;stop-opacity:1;" offset="0.652344"/><stop style="stop-color:#4c55d4;stop-opacity:1;" offset="0.65625"/><stop style="stop-color:#4c54d4;stop-opacity:1;" offset="0.660156"/><stop style="stop-color:#4c54d4;stop-opacity:1;" offset="0.664062"/><stop style="stop-color:#4c53d3;stop-opacity:1;" offset="0.667969"/><stop style="stop-color:#4b52d3;stop-opacity:1;" offset="0.671875"/><stop style="stop-color:#4b51d3;stop-opacity:1;" offset="0.675781"/><stop style="stop-color:#4b50d3;stop-opacity:1;" offset="0.679688"/><stop style="stop-color:#4b4fd3;stop-opacity:1;" offset="0.683594"/><stop style="stop-color:#4b4ed3;stop-opacity:1;" offset="0.6875"/><stop style="stop-color:#4b4dd3;stop-opacity:1;" offset="0.691406"/><stop style="stop-color:#4a4cd2;stop-opacity:1;" offset="0.695312"/><stop style="stop-color:#4a4bd2;stop-opacity:1;" offset="0.699219"/><stop style="stop-color:#4a4ad2;stop-opacity:1;" offset="0.703125"/><stop style="stop-color:#4a49d2;stop-opacity:1;" offset="0.707031"/><stop style="stop-color:#4a49d2;stop-opacity:1;" offset="0.710938"/><stop style="stop-color:#4948d2;stop-opacity:1;" offset="0.714844"/><stop style="stop-color:#4947d2;stop-opacity:1;" offset="0.71875"/><stop style="stop-color:#4946d1;stop-opacity:1;" offset="0.722656"/><stop style="stop-color:#4945d1;stop-opacity:1;" offset="0.726563"/><stop style="stop-color:#4944d1;stop-opacity:1;" offset="0.730469"/><stop style="stop-color:#4843d1;stop-opacity:1;" offset="0.734375"/><stop style="stop-color:#4842d1;stop-opacity:1;" offset="0.738281"/><stop style="stop-color:#4841d1;stop-opacity:1;" offset="0.742188"/><stop style="stop-color:#4840d1;stop-opacity:1;" offset="0.746094"/><stop style="stop-color:#483fd0;stop-opacity:1;" offset="0.75"/><stop style="stop-color:#473fd0;stop-opacity:1;" offset="0.753906"/><stop style="stop-color:#473ed0;stop-opacity:1;" offset="0.757813"/><stop style="stop-color:#473dd0;stop-opacity:1;" offset="0.761719"/><stop style="stop-color:#473cd0;stop-opacity:1;" offset="0.765625"/><stop style="stop-color:#473bd0;stop-opacity:1;" offset="0.769531"/><stop style="stop-color:#473ad0;stop-opacity:1;" offset="0.773438"/><stop style="stop-color:#4639cf;stop-opacity:1;" offset="0.777344"/><stop style="stop-color:#4638cf;stop-opacity:1;" offset="0.78125"/><stop style="stop-color:#4637cf;stop-opacity:1;" offset="0.785156"/><stop style="stop-color:#4636cf;stop-opacity:1;" offset="0.789062"/><stop style="stop-color:#4635cf;stop-opacity:1;" offset="0.792969"/><stop style="stop-color:#4534cf;stop-opacity:1;" offset="0.796875"/><stop style="stop-color:#4534cf;stop-opacity:1;" offset="0.800781"/><stop style="stop-color:#4533ce;stop-opacity:1;" offset="0.804688"/><stop style="stop-color:#4532ce;stop-opacity:1;" offset="0.808594"/><stop style="stop-color:#4531ce;stop-opacity:1;" offset="0.8125"/><stop style="stop-color:#4430ce;stop-opacity:1;" offset="0.816406"/><stop style="stop-color:#442fce;stop-opacity:1;" offset="0.820312"/><stop style="stop-color:#442ece;stop-opacity:1;" offset="0.824219"/><stop style="stop-color:#442dce;stop-opacity:1;" offset="0.828125"/><stop style="stop-color:#442ccd;stop-opacity:1;" offset="0.832031"/><stop style="stop-color:#432bcd;stop-opacity:1;" offset="0.835938"/><stop style="stop-color:#432acd;stop-opacity:1;" offset="0.839844"/><stop style="stop-color:#432acd;stop-opacity:1;" offset="0.84375"/><stop style="stop-color:#4329cd;stop-opacity:1;" offset="0.875"/><stop style="stop-color:#4329cd;stop-opacity:1;" offset="1"/></linearGradient><clipPath id="f29997ae75"><path d="M 167 191 L 198 191 L 198 221 L 167 221 Z M 167 191 "/></clipPath><clipPath id="5fad9c9ea5"><path d="M 174.664062 194.511719 L 173.78125 195.140625 C 167.417969 199.675781 165.941406 208.503906 170.484375 214.855469 C 175.023438 221.210938 183.863281 222.6875 190.226562 218.152344 L 191.109375 217.523438 C 197.472656 212.988281 198.949219 204.160156 194.40625 197.804688 C 189.867188 191.449219 181.027344 189.976562 174.664062 194.511719 Z M 174.664062 194.511719 "/></clipPath><linearGradient x1="304.377818" gradientTransform="matrix(0.279004,0,0,0.278655,114.550554,74.601078)" y1="416.06354" x2="182.315082" gradientUnits="userSpaceOnUse" y2="529.407425" id="69c747e49b"><stop style="stop-color:#4e5fd5;stop-opacity:1;" offset="0"/><stop style="stop-color:#4e5ed5;stop-opacity:1;" offset="0.015625"/><stop style="stop-color:#4e5dd5;stop-opacity:1;" offset="0.03125"/><stop style="stop-color:#4e5cd5;stop-opacity:1;" offset="0.046875"/><stop style="stop-color:#4d5bd5;stop-opacity:1;" offset="0.0625"/><stop style="stop-color:#4d5ad5;stop-opacity:1;" offset="0.078125"/><stop style="stop-color:#4d59d4;stop-opacity:1;" offset="0.09375"/><stop style="stop-color:#4d58d4;stop-opacity:1;" offset="0.109375"/><stop style="stop-color:#4d58d4;stop-opacity:1;" offset="0.125"/><stop style="stop-color:#4c57d4;stop-opacity:1;" offset="0.140625"/><stop style="stop-color:#4c56d4;stop-opacity:1;" offset="0.15625"/><stop style="stop-color:#4c55d4;stop-opacity:1;" offset="0.171875"/><stop style="stop-color:#4c54d4;stop-opacity:1;" offset="0.1875"/><stop style="stop-color:#4c53d3;stop-opacity:1;" offset="0.203125"/><stop style="stop-color:#4c52d3;stop-opacity:1;" offset="0.21875"/><stop style="stop-color:#4b51d3;stop-opacity:1;" offset="0.234375"/><stop style="stop-color:#4b50d3;stop-opacity:1;" offset="0.25"/><stop style="stop-color:#4b4fd3;stop-opacity:1;" offset="0.265625"/><stop style="stop-color:#4b4ed3;stop-opacity:1;" offset="0.28125"/><stop style="stop-color:#4b4dd3;stop-opacity:1;" offset="0.296875"/><stop style="stop-color:#4a4cd2;stop-opacity:1;" offset="0.3125"/><stop style="stop-color:#4a4bd2;stop-opacity:1;" offset="0.328125"/><stop style="stop-color:#4a4bd2;stop-opacity:1;" offset="0.34375"/><stop style="stop-color:#4a4ad2;stop-opacity:1;" offset="0.359375"/><stop style="stop-color:#4a49d2;stop-opacity:1;" offset="0.375"/><stop style="stop-color:#4948d2;stop-opacity:1;" offset="0.390625"/><stop style="stop-color:#4947d2;stop-opacity:1;" offset="0.40625"/><stop style="stop-color:#4946d1;stop-opacity:1;" offset="0.421875"/><stop style="stop-color:#4945d1;stop-opacity:1;" offset="0.4375"/><stop style="stop-color:#4944d1;stop-opacity:1;" offset="0.453125"/><stop style="stop-color:#4843d1;stop-opacity:1;" offset="0.46875"/><stop style="stop-color:#4842d1;stop-opacity:1;" offset="0.479562"/><stop style="stop-color:#4842d1;stop-opacity:1;" offset="0.484375"/><stop style="stop-color:#4841d1;stop-opacity:1;" offset="0.5"/><stop style="stop-color:#4840d1;stop-opacity:1;" offset="0.515625"/><stop style="stop-color:#483fd0;stop-opacity:1;" offset="0.520438"/><stop style="stop-color:#483fd0;stop-opacity:1;" offset="0.53125"/><stop style="stop-color:#473ed0;stop-opacity:1;" offset="0.546875"/><stop style="stop-color:#473ed0;stop-opacity:1;" offset="0.5625"/><stop style="stop-color:#473dd0;stop-opacity:1;" offset="0.578125"/><stop style="stop-color:#473cd0;stop-opacity:1;" offset="0.59375"/><stop style="stop-color:#473bd0;stop-opacity:1;" offset="0.609375"/><stop style="stop-color:#463ad0;stop-opacity:1;" offset="0.625"/><stop style="stop-color:#4639cf;stop-opacity:1;" offset="0.640625"/><stop style="stop-color:#4638cf;stop-opacity:1;" offset="0.65625"/><stop style="stop-color:#4637cf;stop-opacity:1;" offset="0.671875"/><stop style="stop-color:#4636cf;stop-opacity:1;" offset="0.6875"/><stop style="stop-color:#4635cf;stop-opacity:1;" offset="0.703125"/><stop style="stop-color:#4534cf;stop-opacity:1;" offset="0.71875"/><stop style="stop-color:#4533cf;stop-opacity:1;" offset="0.734375"/><stop style="stop-color:#4532ce;stop-opacity:1;" offset="0.75"/><stop style="stop-color:#4531ce;stop-opacity:1;" offset="0.765625"/><stop style="stop-color:#4530ce;stop-opacity:1;" offset="0.78125"/><stop style="stop-color:#4430ce;stop-opacity:1;" offset="0.796875"/><stop style="stop-color:#442fce;stop-opacity:1;" offset="0.8125"/><stop style="stop-color:#442ece;stop-opacity:1;" offset="0.828125"/><stop style="stop-color:#442dce;stop-opacity:1;" offset="0.84375"/><stop style="stop-color:#442ccd;stop-opacity:1;" offset="0.859375"/><stop style="stop-color:#432bcd;stop-opacity:1;" offset="0.875"/><stop style="stop-color:#432acd;stop-opacity:1;" offset="0.890625"/><stop style="stop-color:#4329cd;stop-opacity:1;" offset="0.90625"/><stop style="stop-color:#4329cd;stop-opacity:1;" offset="0.9375"/><stop style="stop-color:#4329cd;stop-opacity:1;" offset="1"/></linearGradient><clipPath id="df2ee29689"><path d="M 185 74 L 214 74 L 214 103 L 185 103 Z M 185 74 "/></clipPath><clipPath id="4ed6cad713"><path d="M 207.578125 100.246094 C 213.941406 95.710938 215.417969 86.882812 210.878906 80.527344 C 206.335938 74.171875 197.496094 72.695312 191.132812 77.230469 C 184.769531 81.765625 183.292969 90.59375 187.835938 96.949219 C 192.375 103.304688 201.214844 104.78125 207.578125 100.246094 Z M 207.578125 100.246094 "/></clipPath><linearGradient x1="363.561051" gradientTransform="matrix(0.279004,0,0,0.278655,114.550554,74.601078)" y1="-4.610541" x2="244.339147" gradientUnits="userSpaceOnUse" y2="106.095417" id="16eead1c60"><stop style="stop-color:#66d1e7;stop-opacity:1;" offset="0"/><stop style="stop-color:#66d1e7;stop-opacity:1;" offset="0.0625"/><stop style="stop-color:#66d0e7;stop-opacity:1;" offset="0.078125"/><stop style="stop-color:#66cfe7;stop-opacity:1;" offset="0.09375"/><stop style="stop-color:#65cee7;stop-opacity:1;" offset="0.109375"/><stop style="stop-color:#65cee6;stop-opacity:1;" offset="0.125"/><stop style="stop-color:#65cde6;stop-opacity:1;" offset="0.140625"/><stop style="stop-color:#65cce6;stop-opacity:1;" offset="0.15625"/><stop style="stop-color:#65cbe6;stop-opacity:1;" offset="0.171875"/><stop style="stop-color:#65cae6;stop-opacity:1;" offset="0.1875"/><stop style="stop-color:#64c9e6;stop-opacity:1;" offset="0.203125"/><stop style="stop-color:#64c8e6;stop-opacity:1;" offset="0.21875"/><stop style="stop-color:#64c7e5;stop-opacity:1;" offset="0.234375"/><stop style="stop-color:#64c6e5;stop-opacity:1;" offset="0.25"/><stop style="stop-color:#64c5e5;stop-opacity:1;" offset="0.265625"/><stop style="stop-color:#63c4e5;stop-opacity:1;" offset="0.28125"/><stop style="stop-color:#63c4e5;stop-opacity:1;" offset="0.296875"/><stop style="stop-color:#63c3e5;stop-opacity:1;" offset="0.3125"/><stop style="stop-color:#63c2e5;stop-opacity:1;" offset="0.328125"/><stop style="stop-color:#63c1e4;stop-opacity:1;" offset="0.34375"/><stop style="stop-color:#62c0e4;stop-opacity:1;" offset="0.359375"/><stop style="stop-color:#62bfe4;stop-opacity:1;" offset="0.375"/><stop style="stop-color:#62bee4;stop-opacity:1;" offset="0.390625"/><stop style="stop-color:#62bde4;stop-opacity:1;" offset="0.40625"/><stop style="stop-color:#62bce4;stop-opacity:1;" offset="0.421875"/><stop style="stop-color:#61bbe4;stop-opacity:1;" offset="0.4375"/><stop style="stop-color:#61bae4;stop-opacity:1;" offset="0.453125"/><stop style="stop-color:#61bae3;stop-opacity:1;" offset="0.46875"/><stop style="stop-color:#61b9e3;stop-opacity:1;" offset="0.481408"/><stop style="stop-color:#61b8e3;stop-opacity:1;" offset="0.484375"/><stop style="stop-color:#61b8e3;stop-opacity:1;" offset="0.5"/><stop style="stop-color:#61b7e3;stop-opacity:1;" offset="0.515625"/><stop style="stop-color:#60b6e3;stop-opacity:1;" offset="0.518592"/><stop style="stop-color:#60b5e3;stop-opacity:1;" offset="0.53125"/><stop style="stop-color:#60b5e3;stop-opacity:1;" offset="0.546875"/><stop style="stop-color:#60b4e3;stop-opacity:1;" offset="0.5625"/><stop style="stop-color:#60b3e2;stop-opacity:1;" offset="0.578125"/><stop style="stop-color:#60b2e2;stop-opacity:1;" offset="0.59375"/><stop style="stop-color:#5fb1e2;stop-opacity:1;" offset="0.609375"/><stop style="stop-color:#5fb0e2;stop-opacity:1;" offset="0.625"/><stop style="stop-color:#5fb0e2;stop-opacity:1;" offset="0.640625"/><stop style="stop-color:#5fafe2;stop-opacity:1;" offset="0.65625"/><stop style="stop-color:#5faee2;stop-opacity:1;" offset="0.671875"/><stop style="stop-color:#5eade1;stop-opacity:1;" offset="0.6875"/><stop style="stop-color:#5eace1;stop-opacity:1;" offset="0.703125"/><stop style="stop-color:#5eabe1;stop-opacity:1;" offset="0.71875"/><stop style="stop-color:#5eaae1;stop-opacity:1;" offset="0.734375"/><stop style="stop-color:#5ea9e1;stop-opacity:1;" offset="0.75"/><stop style="stop-color:#5ea8e1;stop-opacity:1;" offset="0.765625"/><stop style="stop-color:#5da7e1;stop-opacity:1;" offset="0.78125"/><stop style="stop-color:#5da6e0;stop-opacity:1;" offset="0.796875"/><stop style="stop-color:#5da6e0;stop-opacity:1;" offset="0.8125"/><stop style="stop-color:#5da5e0;stop-opacity:1;" offset="0.828125"/><stop style="stop-color:#5da4e0;stop-opacity:1;" offset="0.84375"/><stop style="stop-color:#5ca3e0;stop-opacity:1;" offset="0.859375"/><stop style="stop-color:#5ca2e0;stop-opacity:1;" offset="0.875"/><stop style="stop-color:#5ca1e0;stop-opacity:1;" offset="0.890625"/><stop style="stop-color:#5ca0df;stop-opacity:1;" offset="0.90625"/><stop style="stop-color:#5c9fdf;stop-opacity:1;" offset="0.921875"/><stop style="stop-color:#5b9edf;stop-opacity:1;" offset="0.9375"/><stop style="stop-color:#5b9ddf;stop-opacity:1;" offset="0.953125"/><stop style="stop-color:#5b9cdf;stop-opacity:1;" offset="0.96875"/><stop style="stop-color:#5b9cdf;stop-opacity:1;" offset="0.984375"/><stop style="stop-color:#5b9bdf;stop-opacity:1;" offset="1"/></linearGradient><clipPath id="ebc8df0ff8"><rect x="0" width="339" y="0" height="59"/></clipPath></defs><g id="37e4145747"><g clip-rule="nonzero" clip-path="url(#c74564a70b)"><g clip-rule="nonzero" clip-path="url(#91b7e2f583)"><path style=" stroke:none;fill-rule:nonzero;fill:url(#8751897186);" d="M 112.644531 93.128906 L 112.644531 199.714844 L 262.523438 199.714844 L 262.523438 93.128906 Z M 112.644531 93.128906 "/></g></g><g clip-rule="nonzero" clip-path="url(#f29997ae75)"><g clip-rule="nonzero" clip-path="url(#5fad9c9ea5)"><path style=" stroke:none;fill-rule:nonzero;fill:url(#69c747e49b);" d="M 165.941406 189.976562 L 165.941406 222.6875 L 198.949219 222.6875 L 198.949219 189.976562 Z M 165.941406 189.976562 "/></g></g><g clip-rule="nonzero" clip-path="url(#df2ee29689)"><g clip-rule="nonzero" clip-path="url(#4ed6cad713)"><path style=" stroke:none;fill-rule:nonzero;fill:url(#16eead1c60);" d="M 183.292969 72.707031 L 183.292969 104.78125 L 215.417969 104.78125 L 215.417969 72.707031 Z M 183.292969 72.707031 "/></g></g><g transform="matrix(1,0,0,1,24,226)"><g clip-path="url(#ebc8df0ff8)"><g style="fill:#2c2d2f;fill-opacity:1;"><g transform="translate(0.0821805, 43.222101)"><path style="stroke:none" d="M 12.953125 0.28125 C 10.847656 0.28125 8.960938 -0.0546875 7.296875 -0.734375 C 5.628906 -1.421875 4.296875 -2.429688 3.296875 -3.765625 C 2.296875 -5.109375 1.769531 -6.722656 1.71875 -8.609375 L 9.1875 -8.609375 C 9.289062 -7.546875 9.65625 -6.734375 10.28125 -6.171875 C 10.914062 -5.609375 11.738281 -5.328125 12.75 -5.328125 C 13.789062 -5.328125 14.609375 -5.566406 15.203125 -6.046875 C 15.804688 -6.523438 16.109375 -7.1875 16.109375 -8.03125 C 16.109375 -8.75 15.867188 -9.335938 15.390625 -9.796875 C 14.910156 -10.265625 14.320312 -10.644531 13.625 -10.9375 C 12.9375 -11.238281 11.945312 -11.582031 10.65625 -11.96875 C 8.800781 -12.539062 7.285156 -13.113281 6.109375 -13.6875 C 4.929688 -14.269531 3.914062 -15.117188 3.0625 -16.234375 C 2.21875 -17.359375 1.796875 -18.820312 1.796875 -20.625 C 1.796875 -23.300781 2.765625 -25.394531 4.703125 -26.90625 C 6.648438 -28.425781 9.179688 -29.1875 12.296875 -29.1875 C 15.472656 -29.1875 18.03125 -28.425781 19.96875 -26.90625 C 21.90625 -25.394531 22.941406 -23.285156 23.078125 -20.578125 L 15.5 -20.578125 C 15.445312 -21.503906 15.101562 -22.234375 14.46875 -22.765625 C 13.84375 -23.304688 13.035156 -23.578125 12.046875 -23.578125 C 11.203125 -23.578125 10.519531 -23.347656 10 -22.890625 C 9.476562 -22.441406 9.21875 -21.796875 9.21875 -20.953125 C 9.21875 -20.023438 9.65625 -19.300781 10.53125 -18.78125 C 11.40625 -18.257812 12.773438 -17.695312 14.640625 -17.09375 C 16.492188 -16.46875 18 -15.867188 19.15625 -15.296875 C 20.320312 -14.722656 21.328125 -13.890625 22.171875 -12.796875 C 23.023438 -11.703125 23.453125 -10.289062 23.453125 -8.5625 C 23.453125 -6.925781 23.035156 -5.4375 22.203125 -4.09375 C 21.367188 -2.757812 20.15625 -1.695312 18.5625 -0.90625 C 16.976562 -0.113281 15.109375 0.28125 12.953125 0.28125 Z M 12.953125 0.28125 "/></g></g><g style="fill:#2c2d2f;fill-opacity:1;"><g transform="translate(23.859845, 43.222101)"><path style="stroke:none" d="M 20.453125 -5.078125 L 9.71875 -5.078125 L 8 0 L 0.65625 0 L 11.0625 -28.78125 L 19.1875 -28.78125 L 29.609375 0 L 22.1875 0 Z M 18.65625 -10.5 L 15.09375 -21.03125 L 11.5625 -10.5 Z M 18.65625 -10.5 "/></g></g><g style="fill:#2c2d2f;fill-opacity:1;"><g transform="translate(52.639014, 43.222101)"><path style="stroke:none" d="M 9.546875 -28.78125 L 9.546875 0 L 2.546875 0 L 2.546875 -28.78125 Z M 9.546875 -28.78125 "/></g></g><g style="fill:#2c2d2f;fill-opacity:1;"><g transform="translate(63.297972, 43.222101)"><path style="stroke:none" d="M 21.28125 -28.78125 L 21.28125 -23.171875 L 9.546875 -23.171875 L 9.546875 -17.09375 L 18.328125 -17.09375 L 18.328125 -11.640625 L 9.546875 -11.640625 L 9.546875 0 L 2.546875 0 L 2.546875 -28.78125 Z M 21.28125 -28.78125 "/></g></g><g style="fill:#2c2d2f;fill-opacity:1;"><g transform="translate(84.287903, 43.222101)"><path style="stroke:none" d="M 9.546875 -28.78125 L 9.546875 0 L 2.546875 0 L 2.546875 -28.78125 Z M 9.546875 -28.78125 "/></g></g><g style="fill:#2c2d2f;fill-opacity:1;"><g transform="translate(94.94686, 43.222101)"><path style="stroke:none" d="M 9.546875 -23.171875 L 9.546875 -17.34375 L 18.9375 -17.34375 L 18.9375 -11.9375 L 9.546875 -11.9375 L 9.546875 -5.609375 L 20.171875 -5.609375 L 20.171875 0 L 2.546875 0 L 2.546875 -28.78125 L 20.171875 -28.78125 L 20.171875 -23.171875 Z M 9.546875 -23.171875 "/></g></g><g style="fill:#2c2d2f;fill-opacity:1;"><g transform="translate(115.690824, 43.222101)"><path style="stroke:none" d=""/></g></g><g style="fill:#2c2d2f;fill-opacity:1;"><g transform="translate(122.947113, 43.222101)"><path style="stroke:none" d="M 24.484375 -19.515625 C 24.484375 -17.847656 24.097656 -16.320312 23.328125 -14.9375 C 22.566406 -13.5625 21.390625 -12.445312 19.796875 -11.59375 C 18.210938 -10.75 16.25 -10.328125 13.90625 -10.328125 L 9.546875 -10.328125 L 9.546875 0 L 2.546875 0 L 2.546875 -28.78125 L 13.90625 -28.78125 C 16.195312 -28.78125 18.132812 -28.382812 19.71875 -27.59375 C 21.300781 -26.800781 22.488281 -25.707031 23.28125 -24.3125 C 24.082031 -22.914062 24.484375 -21.316406 24.484375 -19.515625 Z M 13.359375 -15.90625 C 14.703125 -15.90625 15.703125 -16.21875 16.359375 -16.84375 C 17.015625 -17.476562 17.34375 -18.367188 17.34375 -19.515625 C 17.34375 -20.660156 17.015625 -21.546875 16.359375 -22.171875 C 15.703125 -22.804688 14.703125 -23.125 13.359375 -23.125 L 9.546875 -23.125 L 9.546875 -15.90625 Z M 13.359375 -15.90625 "/></g></g><g style="fill:#2c2d2f;fill-opacity:1;"><g transform="translate(147.093735, 43.222101)"><path style="stroke:none" d="M 16.15625 0.28125 C 13.445312 0.28125 10.960938 -0.34375 8.703125 -1.59375 C 6.453125 -2.851562 4.664062 -4.609375 3.34375 -6.859375 C 2.019531 -9.117188 1.359375 -11.65625 1.359375 -14.46875 C 1.359375 -17.289062 2.019531 -19.820312 3.34375 -22.0625 C 4.664062 -24.300781 6.453125 -26.046875 8.703125 -27.296875 C 10.960938 -28.554688 13.445312 -29.1875 16.15625 -29.1875 C 18.863281 -29.1875 21.34375 -28.554688 23.59375 -27.296875 C 25.851562 -26.046875 27.628906 -24.300781 28.921875 -22.0625 C 30.222656 -19.820312 30.875 -17.289062 30.875 -14.46875 C 30.875 -11.65625 30.21875 -9.117188 28.90625 -6.859375 C 27.59375 -4.609375 25.816406 -2.851562 23.578125 -1.59375 C 21.335938 -0.34375 18.863281 0.28125 16.15625 0.28125 Z M 16.15625 -6.109375 C 18.445312 -6.109375 20.28125 -6.875 21.65625 -8.40625 C 23.039062 -9.9375 23.734375 -11.957031 23.734375 -14.46875 C 23.734375 -17.007812 23.039062 -19.039062 21.65625 -20.5625 C 20.28125 -22.082031 18.445312 -22.84375 16.15625 -22.84375 C 13.832031 -22.84375 11.976562 -22.085938 10.59375 -20.578125 C 9.21875 -19.078125 8.53125 -17.039062 8.53125 -14.46875 C 8.53125 -11.925781 9.21875 -9.894531 10.59375 -8.375 C 11.976562 -6.863281 13.832031 -6.109375 16.15625 -6.109375 Z M 16.15625 -6.109375 "/></g></g><g style="fill:#2c2d2f;fill-opacity:1;"><g transform="translate(177.881701, 43.222101)"><path style="stroke:none" d="M 17.21875 0 L 11.234375 -10.859375 L 9.546875 -10.859375 L 9.546875 0 L 2.546875 0 L 2.546875 -28.78125 L 14.3125 -28.78125 C 16.582031 -28.78125 18.515625 -28.382812 20.109375 -27.59375 C 21.710938 -26.800781 22.910156 -25.710938 23.703125 -24.328125 C 24.492188 -22.953125 24.890625 -21.414062 24.890625 -19.71875 C 24.890625 -17.800781 24.347656 -16.09375 23.265625 -14.59375 C 22.179688 -13.09375 20.585938 -12.023438 18.484375 -11.390625 L 25.140625 0 Z M 9.546875 -15.828125 L 13.90625 -15.828125 C 15.1875 -15.828125 16.144531 -16.140625 16.78125 -16.765625 C 17.425781 -17.398438 17.75 -18.289062 17.75 -19.4375 C 17.75 -20.53125 17.425781 -21.390625 16.78125 -22.015625 C 16.144531 -22.640625 15.1875 -22.953125 13.90625 -22.953125 L 9.546875 -22.953125 Z M 9.546875 -15.828125 "/></g></g><g style="fill:#2c2d2f;fill-opacity:1;"><g transform="translate(203.176216, 43.222101)"><path style="stroke:none" d="M 23.25 -28.78125 L 23.25 -23.171875 L 15.625 -23.171875 L 15.625 0 L 8.609375 0 L 8.609375 -23.171875 L 0.984375 -23.171875 L 0.984375 -28.78125 Z M 23.25 -28.78125 "/></g></g><g style="fill:#2c2d2f;fill-opacity:1;"><g transform="translate(225.969959, 43.222101)"><path style="stroke:none" d="M 21.28125 -28.78125 L 21.28125 -23.171875 L 9.546875 -23.171875 L 9.546875 -17.09375 L 18.328125 -17.09375 L 18.328125 -11.640625 L 9.546875 -11.640625 L 9.546875 0 L 2.546875 0 L 2.546875 -28.78125 Z M 21.28125 -28.78125 "/></g></g><g style="fill:#2c2d2f;fill-opacity:1;"><g transform="translate(246.95989, 43.222101)"><path style="stroke:none" d="M 16.15625 0.28125 C 13.445312 0.28125 10.960938 -0.34375 8.703125 -1.59375 C 6.453125 -2.851562 4.664062 -4.609375 3.34375 -6.859375 C 2.019531 -9.117188 1.359375 -11.65625 1.359375 -14.46875 C 1.359375 -17.289062 2.019531 -19.820312 3.34375 -22.0625 C 4.664062 -24.300781 6.453125 -26.046875 8.703125 -27.296875 C 10.960938 -28.554688 13.445312 -29.1875 16.15625 -29.1875 C 18.863281 -29.1875 21.34375 -28.554688 23.59375 -27.296875 C 25.851562 -26.046875 27.628906 -24.300781 28.921875 -22.0625 C 30.222656 -19.820312 30.875 -17.289062 30.875 -14.46875 C 30.875 -11.65625 30.21875 -9.117188 28.90625 -6.859375 C 27.59375 -4.609375 25.816406 -2.851562 23.578125 -1.59375 C 21.335938 -0.34375 18.863281 0.28125 16.15625 0.28125 Z M 16.15625 -6.109375 C 18.445312 -6.109375 20.28125 -6.875 21.65625 -8.40625 C 23.039062 -9.9375 23.734375 -11.957031 23.734375 -14.46875 C 23.734375 -17.007812 23.039062 -19.039062 21.65625 -20.5625 C 20.28125 -22.082031 18.445312 -22.84375 16.15625 -22.84375 C 13.832031 -22.84375 11.976562 -22.085938 10.59375 -20.578125 C 9.21875 -19.078125 8.53125 -17.039062 8.53125 -14.46875 C 8.53125 -11.925781 9.21875 -9.894531 10.59375 -8.375 C 11.976562 -6.863281 13.832031 -6.109375 16.15625 -6.109375 Z M 16.15625 -6.109375 "/></g></g><g style="fill:#2c2d2f;fill-opacity:1;"><g transform="translate(277.747866, 43.222101)"><path style="stroke:none" d="M 9.546875 -5.40625 L 18.734375 -5.40625 L 18.734375 0 L 2.546875 0 L 2.546875 -28.78125 L 9.546875 -28.78125 Z M 9.546875 -5.40625 "/></g></g><g style="fill:#2c2d2f;fill-opacity:1;"><g transform="translate(295.868088, 43.222101)"><path style="stroke:none" d="M 9.546875 -28.78125 L 9.546875 0 L 2.546875 0 L 2.546875 -28.78125 Z M 9.546875 -28.78125 "/></g></g><g style="fill:#2c2d2f;fill-opacity:1;"><g transform="translate(306.527045, 43.222101)"><path style="stroke:none" d="M 16.15625 0.28125 C 13.445312 0.28125 10.960938 -0.34375 8.703125 -1.59375 C 6.453125 -2.851562 4.664062 -4.609375 3.34375 -6.859375 C 2.019531 -9.117188 1.359375 -11.65625 1.359375 -14.46875 C 1.359375 -17.289062 2.019531 -19.820312 3.34375 -22.0625 C 4.664062 -24.300781 6.453125 -26.046875 8.703125 -27.296875 C 10.960938 -28.554688 13.445312 -29.1875 16.15625 -29.1875 C 18.863281 -29.1875 21.34375 -28.554688 23.59375 -27.296875 C 25.851562 -26.046875 27.628906 -24.300781 28.921875 -22.0625 C 30.222656 -19.820312 30.875 -17.289062 30.875 -14.46875 C 30.875 -11.65625 30.21875 -9.117188 28.90625 -6.859375 C 27.59375 -4.609375 25.816406 -2.851562 23.578125 -1.59375 C 21.335938 -0.34375 18.863281 0.28125 16.15625 0.28125 Z M 16.15625 -6.109375 C 18.445312 -6.109375 20.28125 -6.875 21.65625 -8.40625 C 23.039062 -9.9375 23.734375 -11.957031 23.734375 -14.46875 C 23.734375 -17.007812 23.039062 -19.039062 21.65625 -20.5625 C 20.28125 -22.082031 18.445312 -22.84375 16.15625 -22.84375 C 13.832031 -22.84375 11.976562 -22.085938 10.59375 -20.578125 C 9.21875 -19.078125 8.53125 -17.039062 8.53125 -14.46875 C 8.53125 -11.925781 9.21875 -9.894531 10.59375 -8.375 C 11.976562 -6.863281 13.832031 -6.109375 16.15625 -6.109375 Z M 16.15625 -6.109375 "/></g></g></g></g><g style="fill:#5894dd;fill-opacity:1;"><g transform="translate(109.652329, 298.243749)"><path style="stroke:none" d="M 6.578125 -1.9375 L 2.375 -1.9375 L 1.546875 0 L -0.0625 0 L 3.71875 -8.40625 L 5.25 -8.40625 L 9.046875 0 L 7.421875 0 Z M 6.0625 -3.171875 L 4.46875 -6.84375 L 2.90625 -3.171875 Z M 6.0625 -3.171875 "/></g></g><g style="fill:#5894dd;fill-opacity:1;"><g transform="translate(120.560356, 298.243749)"><path style="stroke:none" d=""/></g></g><g style="fill:#5894dd;fill-opacity:1;"><g transform="translate(125.792377, 298.243749)"><path style="stroke:none" d="M 2.828125 -7.078125 L 0.046875 -7.078125 L 0.046875 -8.40625 L 7.171875 -8.40625 L 7.171875 -7.078125 L 4.390625 -7.078125 L 4.390625 0 L 2.828125 0 Z M 2.828125 -7.078125 "/></g></g><g style="fill:#5894dd;fill-opacity:1;"><g transform="translate(134.9364, 298.243749)"><path style="stroke:none" d="M 7.421875 -1.3125 L 7.421875 0 L 1.125 0 L 1.125 -8.40625 L 7.265625 -8.40625 L 7.265625 -7.09375 L 2.6875 -7.09375 L 2.6875 -4.90625 L 6.75 -4.90625 L 6.75 -3.625 L 2.6875 -3.625 L 2.6875 -1.3125 Z M 7.421875 -1.3125 "/></g></g><g style="fill:#5894dd;fill-opacity:1;"><g transform="translate(144.896422, 298.243749)"><path style="stroke:none" d="M 5.015625 0.125 C 4.171875 0.125 3.40625 -0.0625 2.71875 -0.4375 C 2.03125 -0.8125 1.492188 -1.328125 1.109375 -1.984375 C 0.722656 -2.640625 0.53125 -3.378906 0.53125 -4.203125 C 0.53125 -5.023438 0.722656 -5.765625 1.109375 -6.421875 C 1.503906 -7.078125 2.039062 -7.585938 2.71875 -7.953125 C 3.40625 -8.328125 4.175781 -8.515625 5.03125 -8.515625 C 5.71875 -8.515625 6.34375 -8.394531 6.90625 -8.15625 C 7.476562 -7.914062 7.960938 -7.566406 8.359375 -7.109375 L 7.34375 -6.171875 C 6.738281 -6.828125 5.988281 -7.15625 5.09375 -7.15625 C 4.519531 -7.15625 4.003906 -7.023438 3.546875 -6.765625 C 3.097656 -6.515625 2.742188 -6.164062 2.484375 -5.71875 C 2.222656 -5.269531 2.09375 -4.765625 2.09375 -4.203125 C 2.09375 -3.628906 2.222656 -3.117188 2.484375 -2.671875 C 2.742188 -2.222656 3.097656 -1.875 3.546875 -1.625 C 4.003906 -1.375 4.519531 -1.25 5.09375 -1.25 C 5.988281 -1.25 6.738281 -1.582031 7.34375 -2.25 L 8.359375 -1.28125 C 7.960938 -0.820312 7.476562 -0.472656 6.90625 -0.234375 C 6.332031 0.00390625 5.703125 0.125 5.015625 0.125 Z M 5.015625 0.125 "/></g></g><g style="fill:#5894dd;fill-opacity:1;"><g transform="translate(155.540445, 298.243749)"><path style="stroke:none" d="M 8.59375 -8.40625 L 8.59375 0 L 7.03125 0 L 7.03125 -3.59375 L 2.6875 -3.59375 L 2.6875 0 L 1.125 0 L 1.125 -8.40625 L 2.6875 -8.40625 L 2.6875 -4.9375 L 7.03125 -4.9375 L 7.03125 -8.40625 Z M 8.59375 -8.40625 "/></g></g><g style="fill:#5894dd;fill-opacity:1;"><g transform="translate(167.18047, 298.243749)"><path style="stroke:none" d=""/></g></g><g style="fill:#5894dd;fill-opacity:1;"><g transform="translate(172.412491, 298.243749)"><path style="stroke:none" d="M 1.125 -8.40625 L 4.796875 -8.40625 C 5.691406 -8.40625 6.488281 -8.226562 7.1875 -7.875 C 7.882812 -7.53125 8.425781 -7.039062 8.8125 -6.40625 C 9.195312 -5.769531 9.390625 -5.035156 9.390625 -4.203125 C 9.390625 -3.367188 9.195312 -2.632812 8.8125 -2 C 8.425781 -1.363281 7.882812 -0.867188 7.1875 -0.515625 C 6.488281 -0.171875 5.691406 0 4.796875 0 L 1.125 0 Z M 4.734375 -1.3125 C 5.347656 -1.3125 5.890625 -1.429688 6.359375 -1.671875 C 6.828125 -1.910156 7.1875 -2.25 7.4375 -2.6875 C 7.6875 -3.125 7.8125 -3.628906 7.8125 -4.203125 C 7.8125 -4.773438 7.6875 -5.28125 7.4375 -5.71875 C 7.1875 -6.15625 6.828125 -6.488281 6.359375 -6.71875 C 5.890625 -6.957031 5.347656 -7.078125 4.734375 -7.078125 L 2.6875 -7.078125 L 2.6875 -1.3125 Z M 4.734375 -1.3125 "/></g></g><g style="fill:#5894dd;fill-opacity:1;"><g transform="translate(184.244526, 298.243749)"><path style="stroke:none" d="M 7.421875 -1.3125 L 7.421875 0 L 1.125 0 L 1.125 -8.40625 L 7.265625 -8.40625 L 7.265625 -7.09375 L 2.6875 -7.09375 L 2.6875 -4.90625 L 6.75 -4.90625 L 6.75 -3.625 L 2.6875 -3.625 L 2.6875 -1.3125 Z M 7.421875 -1.3125 "/></g></g><g style="fill:#5894dd;fill-opacity:1;"><g transform="translate(194.204547, 298.243749)"><path style="stroke:none" d="M 8.8125 -8.40625 L 5.140625 0 L 3.609375 0 L -0.0625 -8.40625 L 1.625 -8.40625 L 4.421875 -1.921875 L 7.25 -8.40625 Z M 8.8125 -8.40625 "/></g></g><g style="fill:#5894dd;fill-opacity:1;"><g transform="translate(204.872568, 298.243749)"><path style="stroke:none" d="M 7.421875 -1.3125 L 7.421875 0 L 1.125 0 L 1.125 -8.40625 L 7.265625 -8.40625 L 7.265625 -7.09375 L 2.6875 -7.09375 L 2.6875 -4.90625 L 6.75 -4.90625 L 6.75 -3.625 L 2.6875 -3.625 L 2.6875 -1.3125 Z M 7.421875 -1.3125 "/></g></g><g style="fill:#5894dd;fill-opacity:1;"><g transform="translate(214.83259, 298.243749)"><path style="stroke:none" d="M 1.125 -8.40625 L 2.6875 -8.40625 L 2.6875 -1.3125 L 7.078125 -1.3125 L 7.078125 0 L 1.125 0 Z M 1.125 -8.40625 "/></g></g><g style="fill:#5894dd;fill-opacity:1;"><g transform="translate(223.94061, 298.243749)"><path style="stroke:none" d="M 5.046875 0.125 C 4.191406 0.125 3.421875 -0.0625 2.734375 -0.4375 C 2.046875 -0.8125 1.503906 -1.328125 1.109375 -1.984375 C 0.722656 -2.640625 0.53125 -3.378906 0.53125 -4.203125 C 0.53125 -5.015625 0.722656 -5.75 1.109375 -6.40625 C 1.503906 -7.070312 2.046875 -7.585938 2.734375 -7.953125 C 3.421875 -8.328125 4.191406 -8.515625 5.046875 -8.515625 C 5.910156 -8.515625 6.6875 -8.328125 7.375 -7.953125 C 8.0625 -7.585938 8.597656 -7.078125 8.984375 -6.421875 C 9.378906 -5.765625 9.578125 -5.023438 9.578125 -4.203125 C 9.578125 -3.378906 9.378906 -2.640625 8.984375 -1.984375 C 8.597656 -1.328125 8.0625 -0.8125 7.375 -0.4375 C 6.6875 -0.0625 5.910156 0.125 5.046875 0.125 Z M 5.046875 -1.25 C 5.609375 -1.25 6.113281 -1.375 6.5625 -1.625 C 7.007812 -1.875 7.359375 -2.222656 7.609375 -2.671875 C 7.867188 -3.128906 8 -3.640625 8 -4.203125 C 8 -4.765625 7.867188 -5.269531 7.609375 -5.71875 C 7.359375 -6.164062 7.007812 -6.515625 6.5625 -6.765625 C 6.113281 -7.023438 5.609375 -7.15625 5.046875 -7.15625 C 4.492188 -7.15625 3.992188 -7.023438 3.546875 -6.765625 C 3.097656 -6.515625 2.742188 -6.164062 2.484375 -5.71875 C 2.222656 -5.269531 2.09375 -4.765625 2.09375 -4.203125 C 2.09375 -3.640625 2.222656 -3.128906 2.484375 -2.671875 C 2.742188 -2.222656 3.097656 -1.875 3.546875 -1.625 C 3.992188 -1.375 4.492188 -1.25 5.046875 -1.25 Z M 5.046875 -1.25 "/></g></g><g style="fill:#5894dd;fill-opacity:1;"><g transform="translate(235.964642, 298.243749)"><path style="stroke:none" d="M 4.578125 -8.40625 C 5.304688 -8.40625 5.941406 -8.285156 6.484375 -8.046875 C 7.023438 -7.804688 7.4375 -7.460938 7.71875 -7.015625 C 8.007812 -6.566406 8.15625 -6.03125 8.15625 -5.40625 C 8.15625 -4.800781 8.007812 -4.269531 7.71875 -3.8125 C 7.4375 -3.363281 7.023438 -3.019531 6.484375 -2.78125 C 5.941406 -2.539062 5.304688 -2.421875 4.578125 -2.421875 L 2.6875 -2.421875 L 2.6875 0 L 1.125 0 L 1.125 -8.40625 Z M 4.515625 -3.75 C 5.191406 -3.75 5.707031 -3.890625 6.0625 -4.171875 C 6.414062 -4.460938 6.59375 -4.875 6.59375 -5.40625 C 6.59375 -5.945312 6.414062 -6.359375 6.0625 -6.640625 C 5.707031 -6.929688 5.191406 -7.078125 4.515625 -7.078125 L 2.6875 -7.078125 L 2.6875 -3.75 Z M 4.515625 -3.75 "/></g></g><g style="fill:#5894dd;fill-opacity:1;"><g transform="translate(246.596671, 298.243749)"><path style="stroke:none" d="M 7.421875 -1.3125 L 7.421875 0 L 1.125 0 L 1.125 -8.40625 L 7.265625 -8.40625 L 7.265625 -7.09375 L 2.6875 -7.09375 L 2.6875 -4.90625 L 6.75 -4.90625 L 6.75 -3.625 L 2.6875 -3.625 L 2.6875 -1.3125 Z M 7.421875 -1.3125 "/></g></g><g style="fill:#5894dd;fill-opacity:1;"><g transform="translate(256.556693, 298.243749)"><path style="stroke:none" d="M 6.625 0 L 4.90625 -2.453125 C 4.832031 -2.453125 4.722656 -2.453125 4.578125 -2.453125 L 2.6875 -2.453125 L 2.6875 0 L 1.125 0 L 1.125 -8.40625 L 4.578125 -8.40625 C 5.304688 -8.40625 5.941406 -8.285156 6.484375 -8.046875 C 7.023438 -7.804688 7.4375 -7.460938 7.71875 -7.015625 C 8.007812 -6.566406 8.15625 -6.03125 8.15625 -5.40625 C 8.15625 -4.78125 8 -4.238281 7.6875 -3.78125 C 7.382812 -3.320312 6.945312 -2.984375 6.375 -2.765625 L 8.296875 0 Z M 6.59375 -5.40625 C 6.59375 -5.945312 6.414062 -6.359375 6.0625 -6.640625 C 5.707031 -6.929688 5.191406 -7.078125 4.515625 -7.078125 L 2.6875 -7.078125 L 2.6875 -3.734375 L 4.515625 -3.734375 C 5.191406 -3.734375 5.707031 -3.878906 6.0625 -4.171875 C 6.414062 -4.460938 6.59375 -4.875 6.59375 -5.40625 Z M 6.59375 -5.40625 "/></g></g></g></svg>